<svg xmlns="http://www.w3.org/2000/svg" xmlns:xlink="http://www.w3.org/1999/xlink" contentStyleType="text/css" data-diagram-type="CLASS" height="595px" preserveAspectRatio="none" style="width:1006px;height:595px;background:#FFFFFF;" version="1.1" viewBox="0 0 1006 595" width="1006px" zoomAndPan="magnify"><?plantuml 1.2026.5?><defs/><g><!--cluster ?????????? ????--><g class="cluster" data-qualified-name=".......... ...." data-source-line="17" id="ent0001"><path d="M41.5,6 L156.8403,6 A3.75,3.75 0 0 1 159.3403,8.5 L166.3403,26.9487 L960.5,26.9487 A2.5,2.5 0 0 1 963,29.4487 L963,309.14 A2.5,2.5 0 0 1 960.5,311.64 L41.5,311.64 A2.5,2.5 0 0 1 39,309.14 L39,8.5 A2.5,2.5 0 0 1 41.5,6" fill="#FFFFFF" style="stroke:#000000;stroke-width:1.5;"/><line style="stroke:#000000;stroke-width:1.5;" x1="39" x2="166.3403" y1="26.9487" y2="26.9487"/><text fill="#000000" font-family="Arial" font-size="13" font-weight="700" lengthAdjust="spacing" textLength="114.3403" x="43" y="20.1938">&#1055;&#1088;&#1080;&#1082;&#1083;&#1072;&#1076;&#1085;&#1086;&#1081; &#1089;&#1083;&#1086;&#1081;</text></g><!--cluster ???????????????? ????--><g class="cluster" data-qualified-name="................ ...." data-source-line="52" id="ent0008"><path d="M8.5,335.64 L172.0317,335.64 A3.75,3.75 0 0 1 174.5317,338.14 L181.5317,356.5887 L988.5,356.5887 A2.5,2.5 0 0 1 991,359.0887 L991,577.63 A2.5,2.5 0 0 1 988.5,580.13 L8.5,580.13 A2.5,2.5 0 0 1 6,577.63 L6,338.14 A2.5,2.5 0 0 1 8.5,335.64" fill="#FFFFFF" style="stroke:#000000;stroke-width:1.5;"/><line style="stroke:#000000;stroke-width:1.5;" x1="6" x2="181.5317" y1="356.5887" y2="356.5887"/><text fill="#000000" font-family="Arial" font-size="13" font-weight="700" lengthAdjust="spacing" textLength="162.5317" x="10" y="349.8338">&#1048;&#1085;&#1092;&#1088;&#1072;&#1089;&#1090;&#1088;&#1091;&#1082;&#1090;&#1091;&#1088;&#1085;&#1099;&#1081; &#1089;&#1083;&#1086;&#1081;</text></g><!--class AuthService--><g class="entity" data-qualified-name=".......... .....AuthService" data-source-line="18" id="ent0002"><rect fill="#FFFFFF" height="75.8975" rx="2.5" ry="2.5" style="stroke:#000000;stroke-width:0.5;" width="203.8579" x="55.07" y="68.9"/><ellipse cx="117.9535" cy="83.9" fill="#C2C2C2" rx="10" ry="10" style="stroke:#181818;stroke-width:1;"/><path d="M119.8154,88.1271 Q119.371,88.3556 118.8823,88.4698 Q118.3935,88.5841 117.8539,88.5841 Q115.9369,88.5841 114.9277,87.3209 Q113.9184,86.0577 113.9184,83.671 Q113.9184,81.2779 114.9277,80.0147 Q115.9369,78.7516 117.8539,78.7516 Q118.3935,78.7516 118.8886,78.8658 Q119.3837,78.9801 119.8154,79.2086 L119.8154,81.2906 Q119.3329,80.8463 118.8791,80.64 Q118.4252,80.4337 117.9428,80.4337 Q116.9145,80.4337 116.3908,81.2494 Q115.8671,82.065 115.8671,83.671 Q115.8671,85.2706 116.3908,86.0863 Q116.9145,86.902 117.9428,86.902 Q118.4252,86.902 118.8791,86.6957 Q119.3329,86.4894 119.8154,86.045 Z " fill="#000000"/><text fill="#000000" font-family="Arial" font-size="13" lengthAdjust="spacing" textLength="70.0908" x="136.9535" y="88.6195">AuthService</text><line style="stroke:#000000;stroke-width:0.5;" x1="56.07" x2="257.9279" y1="98.9" y2="98.9"/><line style="stroke:#000000;stroke-width:0.5;" x1="56.07" x2="257.9279" y1="106.9" y2="106.9"/><text fill="#000000" font-family="Arial" font-size="13" lengthAdjust="spacing" textLength="191.8579" x="61.07" y="123.0938">+login_with_telegram_initdata(...)</text><text fill="#000000" font-family="Arial" font-size="13" lengthAdjust="spacing" textLength="62.5054" x="61.07" y="138.0426">+logout(...)</text></g><!--class CrmIdentityService--><g class="entity" data-qualified-name=".......... .....CrmIdentityService" data-source-line="23" id="ent0003"><rect fill="#FFFFFF" height="60.9487" rx="2.5" ry="2.5" style="stroke:#000000;stroke-width:0.5;" width="179.9907" x="55" y="234.69"/><ellipse cx="87.0822" cy="249.69" fill="#C2C2C2" rx="10" ry="10" style="stroke:#181818;stroke-width:1;"/><path d="M88.944,253.9171 Q88.4997,254.1456 88.0109,254.2598 Q87.5221,254.3741 86.9826,254.3741 Q85.0656,254.3741 84.0563,253.1109 Q83.047,251.8477 83.047,249.461 Q83.047,247.0679 84.0563,245.8047 Q85.0656,244.5416 86.9826,244.5416 Q87.5221,244.5416 88.0172,244.6558 Q88.5124,244.7701 88.944,244.9986 L88.944,247.0806 Q88.4616,246.6363 88.0077,246.43 Q87.5539,246.2237 87.0714,246.2237 Q86.0431,246.2237 85.5194,247.0394 Q84.9958,247.855 84.9958,249.461 Q84.9958,251.0606 85.5194,251.8763 Q86.0431,252.692 87.0714,252.692 Q87.5539,252.692 88.0077,252.4857 Q88.4616,252.2794 88.944,251.835 Z " fill="#000000"/><text fill="#000000" font-family="Arial" font-size="13" lengthAdjust="spacing" textLength="109.8081" x="104.1004" y="254.4095">CrmIdentityService</text><line style="stroke:#000000;stroke-width:0.5;" x1="56" x2="233.9907" y1="264.69" y2="264.69"/><line style="stroke:#000000;stroke-width:0.5;" x1="56" x2="233.9907" y1="272.69" y2="272.69"/><text fill="#000000" font-family="Arial" font-size="13" lengthAdjust="spacing" textLength="167.9907" x="61" y="288.8838">+ensure_crm_id_for_user(...)</text></g><!--class SalonService--><g class="entity" data-qualified-name=".......... .....SalonService" data-source-line="27" id="ent0004"><rect fill="#FFFFFF" height="60.9487" rx="2.5" ry="2.5" style="stroke:#000000;stroke-width:0.5;" width="106.5972" x="840.7" y="76.37"/><ellipse cx="854.7" cy="91.37" fill="#C2C2C2" rx="10" ry="10" style="stroke:#181818;stroke-width:1;"/><path d="M856.5618,95.5971 Q856.1175,95.8256 855.6287,95.9398 Q855.1399,96.0541 854.6004,96.0541 Q852.6834,96.0541 851.6741,94.7909 Q850.6648,93.5277 850.6648,91.141 Q850.6648,88.7479 851.6741,87.4847 Q852.6834,86.2216 854.6004,86.2216 Q855.1399,86.2216 855.6351,86.3358 Q856.1302,86.4501 856.5618,86.6786 L856.5618,88.7606 Q856.0794,88.3163 855.6255,88.11 Q855.1717,87.9037 854.6893,87.9037 Q853.6609,87.9037 853.1373,88.7194 Q852.6136,89.535 852.6136,91.141 Q852.6136,92.7406 853.1373,93.5563 Q853.6609,94.372 854.6893,94.372 Q855.1717,94.372 855.6255,94.1657 Q856.0794,93.9594 856.5618,93.515 Z " fill="#000000"/><text fill="#000000" font-family="Arial" font-size="13" lengthAdjust="spacing" textLength="76.5972" x="867.7" y="96.0895">SalonService</text><line style="stroke:#000000;stroke-width:0.5;" x1="841.7" x2="946.2972" y1="106.37" y2="106.37"/><line style="stroke:#000000;stroke-width:0.5;" x1="841.7" x2="946.2972" y1="114.37" y2="114.37"/><text fill="#000000" font-family="Arial" font-size="13" lengthAdjust="spacing" textLength="73.3472" x="846.7" y="130.5638">+get_info(...)</text></g><!--class ServicesService--><g class="entity" data-qualified-name=".......... .....ServicesService" data-source-line="31" id="ent0005"><rect fill="#FFFFFF" height="75.8975" rx="2.5" ry="2.5" style="stroke:#000000;stroke-width:0.5;" width="172.7798" x="444.61" y="68.9"/><ellipse cx="480.9226" cy="83.9" fill="#C2C2C2" rx="10" ry="10" style="stroke:#181818;stroke-width:1;"/><path d="M482.7844,88.1271 Q482.3401,88.3556 481.8513,88.4698 Q481.3625,88.5841 480.823,88.5841 Q478.906,88.5841 477.8967,87.3209 Q476.8874,86.0577 476.8874,83.671 Q476.8874,81.2779 477.8967,80.0147 Q478.906,78.7516 480.823,78.7516 Q481.3625,78.7516 481.8576,78.8658 Q482.3527,78.9801 482.7844,79.2086 L482.7844,81.2906 Q482.302,80.8463 481.8481,80.64 Q481.3943,80.4337 480.9118,80.4337 Q479.8835,80.4337 479.3598,81.2494 Q478.8361,82.065 478.8361,83.671 Q478.8361,85.2706 479.3598,86.0863 Q479.8835,86.902 480.9118,86.902 Q481.3943,86.902 481.8481,86.6957 Q482.302,86.4894 482.7844,86.045 Z " fill="#000000"/><text fill="#000000" font-family="Arial" font-size="13" lengthAdjust="spacing" textLength="93.1963" x="498.8809" y="88.6195">ServicesService</text><line style="stroke:#000000;stroke-width:0.5;" x1="445.61" x2="616.3898" y1="98.9" y2="98.9"/><line style="stroke:#000000;stroke-width:0.5;" x1="445.61" x2="616.3898" y1="106.9" y2="106.9"/><text fill="#000000" font-family="Arial" font-size="13" lengthAdjust="spacing" textLength="160.7798" x="450.61" y="123.0938">+get_all_service_groups(...)</text><text fill="#000000" font-family="Arial" font-size="13" lengthAdjust="spacing" textLength="100.0645" x="450.61" y="138.0426">+get_services(...)</text></g><!--class StaffService--><g class="entity" data-qualified-name=".......... .....StaffService" data-source-line="36" id="ent0006"><rect fill="#FFFFFF" height="90.8462" rx="2.5" ry="2.5" style="stroke:#000000;stroke-width:0.5;" width="153.9907" x="652" y="61.42"/><ellipse cx="690.2578" cy="76.42" fill="#C2C2C2" rx="10" ry="10" style="stroke:#181818;stroke-width:1;"/><path d="M692.1196,80.6471 Q691.6753,80.8756 691.1865,80.9898 Q690.6978,81.1041 690.1582,81.1041 Q688.2412,81.1041 687.2319,79.8409 Q686.2227,78.5777 686.2227,76.191 Q686.2227,73.7979 687.2319,72.5347 Q688.2412,71.2716 690.1582,71.2716 Q690.6978,71.2716 691.1929,71.3858 Q691.688,71.5001 692.1196,71.7286 L692.1196,73.8106 Q691.6372,73.3663 691.1833,73.16 Q690.7295,72.9537 690.2471,72.9537 Q689.2188,72.9537 688.6951,73.7694 Q688.1714,74.585 688.1714,76.191 Q688.1714,77.7906 688.6951,78.6063 Q689.2188,79.422 690.2471,79.422 Q690.7295,79.422 691.1833,79.2157 Q691.6372,79.0094 692.1196,78.565 Z " fill="#000000"/><text fill="#000000" font-family="Arial" font-size="13" lengthAdjust="spacing" textLength="70.0845" x="708.6484" y="81.1395">StaffService</text><line style="stroke:#000000;stroke-width:0.5;" x1="653" x2="804.9907" y1="91.42" y2="91.42"/><line style="stroke:#000000;stroke-width:0.5;" x1="653" x2="804.9907" y1="99.42" y2="99.42"/><text fill="#000000" font-family="Arial" font-size="13" lengthAdjust="spacing" textLength="100.0708" x="658" y="115.6138">+get_staff_list(...)</text><text fill="#000000" font-family="Arial" font-size="13" lengthAdjust="spacing" textLength="136.2207" x="658" y="130.5626">+get_staff_schedule(...)</text><text fill="#000000" font-family="Arial" font-size="13" lengthAdjust="spacing" textLength="141.9907" x="658" y="145.5113">+get_available_times(...)</text></g><!--class VisitsService--><g class="entity" data-qualified-name=".......... .....VisitsService" data-source-line="42" id="ent0007"><rect fill="#FFFFFF" height="135.6924" rx="2.5" ry="2.5" style="stroke:#000000;stroke-width:0.5;" width="115.6636" x="294.17" y="39"/><ellipse cx="313.2354" cy="54" fill="#C2C2C2" rx="10" ry="10" style="stroke:#181818;stroke-width:1;"/><path d="M315.0972,58.2271 Q314.6528,58.4556 314.1641,58.5698 Q313.6753,58.6841 313.1357,58.6841 Q311.2188,58.6841 310.2095,57.4209 Q309.2002,56.1577 309.2002,53.771 Q309.2002,51.3779 310.2095,50.1147 Q311.2188,48.8516 313.1357,48.8516 Q313.6753,48.8516 314.1704,48.9658 Q314.6655,49.0801 315.0972,49.3086 L315.0972,51.3906 Q314.6148,50.9463 314.1609,50.74 Q313.707,50.5337 313.2246,50.5337 Q312.1963,50.5337 311.6726,51.3494 Q311.1489,52.165 311.1489,53.771 Q311.1489,55.3706 311.6726,56.1863 Q312.1963,57.002 313.2246,57.002 Q313.707,57.002 314.1609,56.7957 Q314.6148,56.5894 315.0972,56.145 Z " fill="#000000"/><text fill="#000000" font-family="Arial" font-size="13" lengthAdjust="spacing" textLength="74.4072" x="327.361" y="58.7195">VisitsService</text><line style="stroke:#000000;stroke-width:0.5;" x1="295.17" x2="408.8336" y1="69" y2="69"/><line style="stroke:#000000;stroke-width:0.5;" x1="295.17" x2="408.8336" y1="77" y2="77"/><text fill="#000000" font-family="Arial" font-size="13" lengthAdjust="spacing" textLength="103.6636" x="300.17" y="93.1938">+current_visits(...)</text><text fill="#000000" font-family="Arial" font-size="13" lengthAdjust="spacing" textLength="87.7754" x="300.17" y="108.1426">+past_visits(...)</text><text fill="#000000" font-family="Arial" font-size="13" lengthAdjust="spacing" textLength="92.8345" x="300.17" y="123.0913">+create_visit(...)</text><text fill="#000000" font-family="Arial" font-size="13" lengthAdjust="spacing" textLength="96.4653" x="300.17" y="138.04">+update_visit(...)</text><text fill="#000000" font-family="Arial" font-size="13" lengthAdjust="spacing" textLength="94.2817" x="300.17" y="152.9888">+cancel_visit(...)</text><text fill="#000000" font-family="Arial" font-size="13" lengthAdjust="spacing" textLength="99.3218" x="300.17" y="167.9375">+confirm_visit(...)</text></g><!--class CrmAdapter--><g class="entity" data-qualified-name="................ .....CrmAdapter" data-source-line="53" id="ent0009"><rect fill="#FFFFFF" height="195.4873" rx="2.5" ry="2.5" style="stroke:#000000;stroke-width:0.5;" width="153.9907" x="646" y="368.64"/><ellipse cx="684.2607" cy="383.64" fill="#C2C2C2" rx="10" ry="10" style="stroke:#181818;stroke-width:1;"/><path d="M686.1225,387.8671 Q685.6781,388.0956 685.1894,388.2098 Q684.7006,388.3241 684.1611,388.3241 Q682.2441,388.3241 681.2348,387.0609 Q680.2255,385.7977 680.2255,383.411 Q680.2255,381.0179 681.2348,379.7547 Q682.2441,378.4916 684.1611,378.4916 Q684.7006,378.4916 685.1957,378.6058 Q685.6908,378.7201 686.1225,378.9486 L686.1225,381.0306 Q685.6401,380.5863 685.1862,380.38 Q684.7323,380.1737 684.2499,380.1737 Q683.2216,380.1737 682.6979,380.9894 Q682.1742,381.805 682.1742,383.411 Q682.1742,385.0106 682.6979,385.8263 Q683.2216,386.642 684.2499,386.642 Q684.7323,386.642 685.1862,386.4357 Q685.6401,386.2294 686.1225,385.785 Z " fill="#000000"/><text fill="#000000" font-family="Arial" font-size="13" lengthAdjust="spacing" textLength="70.0781" x="702.6519" y="388.3595">CrmAdapter</text><line style="stroke:#000000;stroke-width:0.5;" x1="647" x2="798.9907" y1="398.64" y2="398.64"/><text fill="#000000" font-family="Arial" font-size="13" lengthAdjust="spacing" textLength="90.9937" x="652" y="414.8338">-crm: CrmClient</text><text fill="#000000" font-family="Arial" font-size="13" lengthAdjust="spacing" textLength="73.709" x="652" y="429.7826">-salon_id: int</text><line style="stroke:#000000;stroke-width:0.5;" x1="647" x2="798.9907" y1="436.5375" y2="436.5375"/><text fill="#000000" font-family="Arial" font-size="13" lengthAdjust="spacing" textLength="139.1089" x="652" y="452.7313">+get_salon_for_front(...)</text><text fill="#000000" font-family="Arial" font-size="13" lengthAdjust="spacing" textLength="112.3408" x="652" y="467.68">+search_crm_id(...)</text><text fill="#000000" font-family="Arial" font-size="13" lengthAdjust="spacing" textLength="100.0645" x="652" y="482.6288">+get_services(...)</text><text fill="#000000" font-family="Arial" font-size="13" lengthAdjust="spacing" textLength="76.9526" x="652" y="497.5775">+get_staff(...)</text><text fill="#000000" font-family="Arial" font-size="13" lengthAdjust="spacing" textLength="141.9907" x="652" y="512.5262">+get_available_times(...)</text><text fill="#000000" font-family="Arial" font-size="13" lengthAdjust="spacing" textLength="92.8345" x="652" y="527.475">+create_visit(...)</text><text fill="#000000" font-family="Arial" font-size="13" lengthAdjust="spacing" textLength="96.4653" x="652" y="542.4237">+update_visit(...)</text><text fill="#000000" font-family="Arial" font-size="13" lengthAdjust="spacing" textLength="94.2817" x="652" y="557.3724">+cancel_visit(...)</text></g><!--class MessengerAdapter--><g class="entity" data-qualified-name="................ .....MessengerAdapter" data-source-line="66" id="ent0010"><rect fill="#FFFFFF" height="60.9487" rx="2.5" ry="2.5" style="stroke:#000000;stroke-width:0.5;" width="139.8398" x="835.08" y="435.91"/><ellipse cx="849.08" cy="450.91" fill="#C2C2C2" rx="10" ry="10" style="stroke:#181818;stroke-width:1;"/><path d="M850.9418,455.1371 Q850.4975,455.3656 850.0087,455.4798 Q849.5199,455.5941 848.9804,455.5941 Q847.0634,455.5941 846.0541,454.3309 Q845.0448,453.0677 845.0448,450.681 Q845.0448,448.2879 846.0541,447.0247 Q847.0634,445.7616 848.9804,445.7616 Q849.5199,445.7616 850.0151,445.8758 Q850.5102,445.9901 850.9418,446.2186 L850.9418,448.3006 Q850.4594,447.8563 850.0055,447.65 Q849.5517,447.4437 849.0693,447.4437 Q848.0409,447.4437 847.5173,448.2594 Q846.9936,449.075 846.9936,450.681 Q846.9936,452.2806 847.5173,453.0963 Q848.0409,453.912 849.0693,453.912 Q849.5517,453.912 850.0055,453.7057 Q850.4594,453.4994 850.9418,453.055 Z " fill="#000000"/><text fill="#000000" font-family="Arial" font-size="13" lengthAdjust="spacing" textLength="109.8398" x="862.08" y="455.6295">MessengerAdapter</text><line style="stroke:#000000;stroke-width:0.5;" x1="836.08" x2="973.9198" y1="465.91" y2="465.91"/><line style="stroke:#000000;stroke-width:0.5;" x1="836.08" x2="973.9198" y1="473.91" y2="473.91"/><text fill="#000000" font-family="Arial" font-size="13" lengthAdjust="spacing" textLength="98.6489" x="841.08" y="490.1038">+get_bot_info(...)</text></g><!--class UserRepository--><g class="entity" data-qualified-name="................ .....UserRepository" data-source-line="70" id="ent0011"><rect fill="#FFFFFF" height="120.7437" rx="2.5" ry="2.5" style="stroke:#000000;stroke-width:0.5;" width="188.687" x="21.66" y="406.01"/><ellipse cx="67.2113" cy="421.01" fill="#C2C2C2" rx="10" ry="10" style="stroke:#181818;stroke-width:1;"/><path d="M69.0731,425.2371 Q68.6288,425.4656 68.14,425.5798 Q67.6512,425.6941 67.1117,425.6941 Q65.1947,425.6941 64.1854,424.4309 Q63.1761,423.1677 63.1761,420.781 Q63.1761,418.3879 64.1854,417.1247 Q65.1947,415.8616 67.1117,415.8616 Q67.6512,415.8616 68.1463,415.9758 Q68.6414,416.0901 69.0731,416.3186 L69.0731,418.4006 Q68.5907,417.9563 68.1368,417.75 Q67.6829,417.5437 67.2005,417.5437 Q66.1722,417.5437 65.6485,418.3594 Q65.1248,419.175 65.1248,420.781 Q65.1248,422.3806 65.6485,423.1963 Q66.1722,424.012 67.2005,424.012 Q67.6829,424.012 68.1368,423.8057 Q68.5907,423.5994 69.0731,423.155 Z " fill="#000000"/><text fill="#000000" font-family="Arial" font-size="13" lengthAdjust="spacing" textLength="89.5845" x="86.2113" y="425.7295">UserRepository</text><line style="stroke:#000000;stroke-width:0.5;" x1="22.66" x2="209.347" y1="436.01" y2="436.01"/><line style="stroke:#000000;stroke-width:0.5;" x1="22.66" x2="209.347" y1="444.01" y2="444.01"/><text fill="#000000" font-family="Arial" font-size="13" lengthAdjust="spacing" textLength="115.9844" x="27.66" y="460.2038">+get_by_user_id(...)</text><text fill="#000000" font-family="Arial" font-size="13" lengthAdjust="spacing" textLength="114.5371" x="27.66" y="475.1526">+get_by_identity(...)</text><text fill="#000000" font-family="Arial" font-size="13" lengthAdjust="spacing" textLength="176.687" x="27.66" y="490.1013">+get_or_create_by_identity(...)</text><text fill="#000000" font-family="Arial" font-size="13" lengthAdjust="spacing" textLength="99.3662" x="27.66" y="505.05">+update_user(...)</text><text fill="#000000" font-family="Arial" font-size="13" lengthAdjust="spacing" textLength="95.0117" x="27.66" y="519.9988">+link_identity(...)</text></g><!--class SessionRepository--><g class="entity" data-qualified-name="................ .....SessionRepository" data-source-line="78" id="ent0012"><rect fill="#FFFFFF" height="105.7949" rx="2.5" ry="2.5" style="stroke:#000000;stroke-width:0.5;" width="138.3862" x="245.81" y="413.49"/><ellipse cx="259.81" cy="428.49" fill="#C2C2C2" rx="10" ry="10" style="stroke:#181818;stroke-width:1;"/><path d="M261.6718,432.7171 Q261.2275,432.9456 260.7387,433.0598 Q260.2499,433.1741 259.7104,433.1741 Q257.7934,433.1741 256.7841,431.9109 Q255.7748,430.6477 255.7748,428.261 Q255.7748,425.8679 256.7841,424.6047 Q257.7934,423.3416 259.7104,423.3416 Q260.2499,423.3416 260.7451,423.4558 Q261.2402,423.5701 261.6718,423.7986 L261.6718,425.8806 Q261.1894,425.4363 260.7355,425.23 Q260.2817,425.0237 259.7993,425.0237 Q258.7709,425.0237 258.2473,425.8394 Q257.7236,426.655 257.7236,428.261 Q257.7236,429.8606 258.2473,430.6763 Q258.7709,431.492 259.7993,431.492 Q260.2817,431.492 260.7355,431.2857 Q261.1894,431.0794 261.6718,430.635 Z " fill="#000000"/><text fill="#000000" font-family="Arial" font-size="13" lengthAdjust="spacing" textLength="108.3862" x="272.81" y="433.2095">SessionRepository</text><line style="stroke:#000000;stroke-width:0.5;" x1="246.81" x2="383.1962" y1="443.49" y2="443.49"/><line style="stroke:#000000;stroke-width:0.5;" x1="246.81" x2="383.1962" y1="451.49" y2="451.49"/><text fill="#000000" font-family="Arial" font-size="13" lengthAdjust="spacing" textLength="63.2163" x="251.81" y="467.6838">+create(...)</text><text fill="#000000" font-family="Arial" font-size="13" lengthAdjust="spacing" textLength="45.1572" x="251.81" y="482.6326">+get(...)</text><text fill="#000000" font-family="Arial" font-size="13" lengthAdjust="spacing" textLength="58.8872" x="251.81" y="497.5813">+touch(...)</text><text fill="#000000" font-family="Arial" font-size="13" lengthAdjust="spacing" textLength="62.5054" x="251.81" y="512.53">+delete(...)</text></g><!--class BotConfigRepository--><g class="entity" data-qualified-name="................ .....BotConfigRepository" data-source-line="85" id="ent0013"><rect fill="#FFFFFF" height="75.8975" rx="2.5" ry="2.5" style="stroke:#000000;stroke-width:0.5;" width="191.5815" x="419.21" y="428.44"/><ellipse cx="452.2691" cy="443.44" fill="#C2C2C2" rx="10" ry="10" style="stroke:#181818;stroke-width:1;"/><path d="M454.1309,447.6671 Q453.6866,447.8956 453.1978,448.0098 Q452.709,448.1241 452.1695,448.1241 Q450.2525,448.1241 449.2432,446.8609 Q448.2339,445.5977 448.2339,443.211 Q448.2339,440.8179 449.2432,439.5547 Q450.2525,438.2916 452.1695,438.2916 Q452.709,438.2916 453.2041,438.4058 Q453.6993,438.5201 454.1309,438.7486 L454.1309,440.8306 Q453.6485,440.3863 453.1946,440.18 Q452.7408,439.9737 452.2583,439.9737 Q451.23,439.9737 450.7063,440.7894 Q450.1827,441.605 450.1827,443.211 Q450.1827,444.8106 450.7063,445.6263 Q451.23,446.442 452.2583,446.442 Q452.7408,446.442 453.1946,446.2357 Q453.6485,446.0294 454.1309,445.585 Z " fill="#000000"/><text fill="#000000" font-family="Arial" font-size="13" lengthAdjust="spacing" textLength="119.228" x="469.5044" y="448.1595">BotConfigRepository</text><line style="stroke:#000000;stroke-width:0.5;" x1="420.21" x2="609.7915" y1="458.44" y2="458.44"/><line style="stroke:#000000;stroke-width:0.5;" x1="420.21" x2="609.7915" y1="466.44" y2="466.44"/><text fill="#000000" font-family="Arial" font-size="13" lengthAdjust="spacing" textLength="76.9717" x="425.21" y="482.6338">+get_bot_id()</text><text fill="#000000" font-family="Arial" font-size="13" lengthAdjust="spacing" textLength="179.5815" x="425.21" y="497.5826">+get_provider_config_value(...)</text></g><!--link AuthService to UserRepository--><g class="link" data-entity-1="ent0002" data-entity-2="ent0011" data-link-type="dependency" data-source-line="91" id="lnk14"><path codeLine="91" d="M240.4,145.26 C240.4,226.87 240.4,410.13 240.4,410.13 C240.4,410.13 232.79,410.13 215.6,410.13" fill="none" id="AuthService-to-UserRepository" style="stroke:#000000;stroke-width:1;"/><polygon fill="#000000" points="210.6,410.13,219.6,414.13,215.6,410.13,219.6,406.13,210.6,410.13" style="stroke:#000000;stroke-width:1;stroke-linejoin:miter;stroke-miterlimit:10;"/></g><!--link AuthService to SessionRepository--><g class="link" data-entity-1="ent0002" data-entity-2="ent0012" data-link-type="dependency" data-source-line="92" id="lnk15"><path codeLine="92" d="M250.18,144.98 C250.18,209.41 250.18,334.94 250.18,408.28" fill="none" id="AuthService-to-SessionRepository" style="stroke:#000000;stroke-width:1;"/><polygon fill="#000000" points="250.18,413.28,254.18,404.28,250.18,408.28,246.18,404.28,250.18,413.28" style="stroke:#000000;stroke-width:1;stroke-linejoin:miter;stroke-miterlimit:10;"/></g><!--link AuthService to BotConfigRepository--><g class="link" data-entity-1="ent0002" data-entity-2="ent0013" data-link-type="dependency" data-source-line="93" id="lnk16"><path codeLine="93" d="M254.55,145.13 C254.55,172.72 254.55,205.13 254.55,205.13 C254.55,205.13 431.91,205.13 431.91,205.13 C431.91,205.13 431.91,350.55 431.91,423.12" fill="none" id="AuthService-to-BotConfigRepository" style="stroke:#000000;stroke-width:1;"/><polygon fill="#000000" points="431.91,428.12,435.91,419.12,431.91,423.12,427.91,419.12,431.91,428.12" style="stroke:#000000;stroke-width:1;stroke-linejoin:miter;stroke-miterlimit:10;"/></g><!--link AuthService to CrmIdentityService--><g class="link" data-entity-1="ent0002" data-entity-2="ent0003" data-link-type="dependency" data-source-line="94" id="lnk17"><path codeLine="94" d="M145.03,145.17 C145.03,172.54 145.03,203.86 145.03,229.35" fill="none" id="AuthService-to-CrmIdentityService" style="stroke:#000000;stroke-width:1;"/><polygon fill="#000000" points="145.03,234.35,149.03,225.35,145.03,229.35,141.03,225.35,145.03,234.35" style="stroke:#000000;stroke-width:1;stroke-linejoin:miter;stroke-miterlimit:10;"/></g><!--link CrmIdentityService to UserRepository--><g class="link" data-entity-1="ent0003" data-entity-2="ent0011" data-link-type="dependency" data-source-line="95" id="lnk18"><path codeLine="95" d="M132.67,295.73 C132.67,324.86 132.67,364.56 132.67,400.9" fill="none" id="CrmIdentityService-to-UserRepository" style="stroke:#000000;stroke-width:1;"/><polygon fill="#000000" points="132.67,405.9,136.67,396.9,132.67,400.9,128.67,396.9,132.67,405.9" style="stroke:#000000;stroke-width:1;stroke-linejoin:miter;stroke-miterlimit:10;"/></g><!--link CrmIdentityService to CrmAdapter--><g class="link" data-entity-1="ent0003" data-entity-2="ent0009" data-link-type="dependency" data-source-line="96" id="lnk19"><path codeLine="96" d="M222.67,296.11 C222.67,335.11 222.67,397.13 222.67,397.13 C222.67,397.13 500.21,397.13 640.65,397.13" fill="none" id="CrmIdentityService-to-CrmAdapter" style="stroke:#000000;stroke-width:1;"/><polygon fill="#000000" points="645.65,397.13,636.65,393.13,640.65,397.13,636.65,401.13,645.65,397.13" style="stroke:#000000;stroke-width:1;stroke-linejoin:miter;stroke-miterlimit:10;"/></g><!--link SalonService to CrmAdapter--><g class="link" data-entity-1="ent0004" data-entity-2="ent0009" data-link-type="dependency" data-source-line="97" id="lnk20"><path codeLine="97" d="M876.23,137.61 C876.23,213.24 876.23,402.13 876.23,402.13 C876.23,402.13 843.22,402.13 805.07,402.13" fill="none" id="SalonService-to-CrmAdapter" style="stroke:#000000;stroke-width:1;"/><polygon fill="#000000" points="800.07,402.13,809.07,406.13,805.07,402.13,809.07,398.13,800.07,402.13" style="stroke:#000000;stroke-width:1;stroke-linejoin:miter;stroke-miterlimit:10;"/></g><!--link SalonService to MessengerAdapter--><g class="link" data-entity-1="ent0004" data-entity-2="ent0010" data-link-type="dependency" data-source-line="98" id="lnk21"><path codeLine="98" d="M911.77,137.81 C911.77,205.86 911.77,362.76 911.77,430.62" fill="none" id="SalonService-to-MessengerAdapter" style="stroke:#000000;stroke-width:1;"/><polygon fill="#000000" points="911.77,435.62,915.77,426.62,911.77,430.62,907.77,426.62,911.77,435.62" style="stroke:#000000;stroke-width:1;stroke-linejoin:miter;stroke-miterlimit:10;"/></g><!--link ServicesService to CrmAdapter--><g class="link" data-entity-1="ent0005" data-entity-2="ent0009" data-link-type="dependency" data-source-line="99" id="lnk22"><path codeLine="99" d="M527.7,145.14 C527.7,219.92 527.7,378.13 527.7,378.13 C527.7,378.13 586.01,378.13 640.53,378.13" fill="none" id="ServicesService-to-CrmAdapter" style="stroke:#000000;stroke-width:1;"/><polygon fill="#000000" points="645.53,378.13,636.53,374.13,640.53,378.13,636.53,382.13,645.53,378.13" style="stroke:#000000;stroke-width:1;stroke-linejoin:miter;stroke-miterlimit:10;"/></g><!--link StaffService to CrmAdapter--><g class="link" data-entity-1="ent0006" data-entity-2="ent0009" data-link-type="dependency" data-source-line="100" id="lnk23"><path codeLine="100" d="M726,152.75 C726,206.8 726,293.09 726,363.29" fill="none" id="StaffService-to-CrmAdapter" style="stroke:#000000;stroke-width:1;"/><polygon fill="#000000" points="726,368.29,730,359.29,726,363.29,722,359.29,726,368.29" style="stroke:#000000;stroke-width:1;stroke-linejoin:miter;stroke-miterlimit:10;"/></g><!--link VisitsService to CrmAdapter--><g class="link" data-entity-1="ent0007" data-entity-2="ent0009" data-link-type="dependency" data-source-line="101" id="lnk24"><path codeLine="101" d="M397.01,175.05 C397.01,258.02 397.01,387.13 397.01,387.13 C397.01,387.13 544.35,387.13 640.75,387.13" fill="none" id="VisitsService-to-CrmAdapter" style="stroke:#000000;stroke-width:1;"/><polygon fill="#000000" points="645.75,387.13,636.75,383.13,640.75,387.13,636.75,391.13,645.75,387.13" style="stroke:#000000;stroke-width:1;stroke-linejoin:miter;stroke-miterlimit:10;"/></g><!--link VisitsService to CrmIdentityService--><g class="link" data-entity-1="ent0007" data-entity-2="ent0003" data-link-type="dependency" data-source-line="102" id="lnk25"><path codeLine="102" d="M339.18,174.89 C339.18,217.79 339.18,265.13 339.18,265.13 C339.18,265.13 290.98,265.13 240.27,265.13" fill="none" id="VisitsService-to-CrmIdentityService" style="stroke:#000000;stroke-width:1;"/><polygon fill="#000000" points="235.27,265.13,244.27,269.13,240.27,265.13,244.27,261.13,235.27,265.13" style="stroke:#000000;stroke-width:1;stroke-linejoin:miter;stroke-miterlimit:10;"/></g><?plantuml-src hLIzRjH04Exz5AjKGIWHY2u5qkKaf1HG445hxQt7zYfxkzRk-4u7YfGGEbw0ZbT8GG51npFORyJu9ydQtajIKDtv-xwPdNzt9dN1BL-o1HTdcJMbJkP66SlMkKI8t1s_DDg8t9ebCBIbpxYS9sOjTSPIhfpF993oKk4Re_4T9yEPbLo5-LFv2TZBLnuf57TkXcZbeaGu4KQtcXUUH4aDk2c06OkvyOYPjMRTvR5Gb9X7pHktnyOcO1yIF5ADWdYUmKD-RYL1Jn6QWg5X2uDeg13IWa1fT1JrPcol-b5VLB-gc-fFTLtzhBRLt-etgo_fa_xiiSyHwqh4PYNcfs1NKa2BClPScKpgU2qnZn4KP1HFBBN4X2FVFpmyV7OdCoNU0kVHdSkvNPuae57YPkGPj2ijnCAImoHEZOrB1pRWufGhwjZGE0EaC58JadTA5x3WIiMkW-EcaeNpKcW4FUb2Rf6dQS2dQ_1OIOTZNotXH0v9gM14yXMNYYyKn2YNmVS-IYTnd8GehQLYngkMz7mMt0LGOO4ZTBW7bqKIWWNN0jGKDZgLrAG1VXwT-mFslThMNsd8hklB-ajzKLzLD_HxHSYs_hPZs6WoPWal46oVtG6Dmb43pvMa93lCDSsd0JbYieUwuhPmCpIffPttmdN0hSZxiNgalNwddjQW_r9KhyjlmJdG6TXXATeGQADtpVW7okGz58QS6hiP66tQDPhcJeJi5t74K17xdCAQFZD_EvkDb_fieXwieNDqXgPHTcyDO_2-q9GYzxuJkZhtSk-1OuFpPZIp7OLegfViUtaMrgmeOCgsDOjNN9Km66Z__XqSl1wLUK9FKfme0Z5EDDCB6GMEPY2S7QhxlOe6b_CnRZoAqVYGZXtu1t743O_NKyXn2Vu1?></g></svg>