<svg xmlns="http://www.w3.org/2000/svg" xmlns:xlink="http://www.w3.org/1999/xlink" contentStyleType="text/css" data-diagram-type="DESCRIPTION" height="468px" preserveAspectRatio="none" style="width:1376px;height:468px;background:#FFFFFF;" version="1.1" viewBox="0 0 1376 468" width="1376px" zoomAndPan="magnify"><?plantuml 1.2026.5?><defs/><g><!--cluster ????????? ??????--><g class="cluster" data-qualified-name="......... ......" data-source-line="22" id="ent0005"><rect fill="#FFFFFF" height="338" rx="2.5" ry="2.5" style="stroke:#000000;stroke-width:1;" width="1208.98" x="153.1" y="7"/><text fill="#000000" font-family="Arial" font-size="15" font-weight="700" lengthAdjust="spacing" textLength="147.1948" x="683.9926" y="23.0698">&#1057;&#1077;&#1088;&#1074;&#1077;&#1088;&#1085;&#1099;&#1081; &#1084;&#1086;&#1076;&#1091;&#1083;&#1100;</text></g><!--entity login--><g class="entity" data-qualified-name="......... .......login" data-source-line="23" id="ent0006"><ellipse cx="287.8161" cy="312.0012" fill="#FFFFFF" rx="74.5061" ry="17.3012" style="stroke:#000000;stroke-width:0.5;"/><text fill="#000000" font-family="Arial" font-size="15" lengthAdjust="spacing" textLength="114.082" x="230.7751" y="317.1255">&#1042;&#1099;&#1087;&#1086;&#1083;&#1085;&#1080;&#1090;&#1100; &#1074;&#1093;&#1086;&#1076;</text></g><!--entity profile--><g class="entity" data-qualified-name="......... .......profile" data-source-line="24" id="ent0007"><ellipse cx="556.4721" cy="308.9964" fill="#FFFFFF" rx="89.9321" ry="20.3864" style="stroke:#000000;stroke-width:0.5;"/><text fill="#000000" font-family="Arial" font-size="15" lengthAdjust="spacing" textLength="150.9668" x="480.9887" y="314.1207">&#1059;&#1087;&#1088;&#1072;&#1074;&#1083;&#1103;&#1090;&#1100; &#1087;&#1088;&#1086;&#1092;&#1080;&#1083;&#1077;&#1084;</text></g><!--entity catalog--><g class="entity" data-qualified-name="......... .......catalog" data-source-line="25" id="ent0008"><ellipse cx="792.0466" cy="302.9995" fill="#FFFFFF" rx="85.6466" ry="26.1595" style="stroke:#000000;stroke-width:0.5;"/><text fill="#000000" font-family="Arial" font-size="15" lengthAdjust="spacing" textLength="123.1055" x="730.4938" y="301.2932">&#1055;&#1086;&#1083;&#1091;&#1095;&#1080;&#1090;&#1100; &#1082;&#1072;&#1090;&#1072;&#1083;&#1086;&#1075;</text><text fill="#000000" font-family="Arial" font-size="15" lengthAdjust="spacing" textLength="94.0796" x="745.0068" y="318.5418">&#1080; &#1088;&#1072;&#1089;&#1087;&#1080;&#1089;&#1072;&#1085;&#1080;&#1077;</text></g><!--entity create--><g class="entity" data-qualified-name="......... .......create" data-source-line="26" id="ent0009"><ellipse cx="1010.21" cy="304.002" fill="#FFFFFF" rx="72.51" ry="16.902" style="stroke:#000000;stroke-width:0.5;"/><text fill="#000000" font-family="Arial" font-size="15" lengthAdjust="spacing" textLength="109.0356" x="955.6922" y="309.1263">&#1057;&#1086;&#1079;&#1076;&#1072;&#1090;&#1100; &#1079;&#1072;&#1087;&#1080;&#1089;&#1100;</text></g><!--entity manage--><g class="entity" data-qualified-name="......... .......manage" data-source-line="27" id="ent0010"><ellipse cx="1244.4017" cy="304.0015" fill="#FFFFFF" rx="99.1717" ry="24.9515" style="stroke:#000000;stroke-width:0.5;"/><text fill="#000000" font-family="Arial" font-size="15" lengthAdjust="spacing" textLength="151.1353" x="1168.8341" y="304.1723">&#1059;&#1087;&#1088;&#1072;&#1074;&#1083;&#1103;&#1090;&#1100; &#1089;&#1086;&#1079;&#1076;&#1072;&#1085;&#1085;&#1086;&#1081;</text><text fill="#000000" font-family="Arial" font-size="15" lengthAdjust="spacing" textLength="58.2861" x="1215.2586" y="321.4208">&#1079;&#1072;&#1087;&#1080;&#1089;&#1100;&#1102;</text></g><!--entity notify--><g class="entity" data-qualified-name="......... .......notify" data-source-line="28" id="ent0011"><ellipse cx="287.822" cy="237.9964" fill="#FFFFFF" rx="95.532" ry="21.5064" style="stroke:#000000;stroke-width:0.5;"/><text fill="#000000" font-family="Arial" font-size="15" lengthAdjust="spacing" textLength="163.7402" x="205.9519" y="243.1207">&#1055;&#1086;&#1083;&#1091;&#1095;&#1080;&#1090;&#1100; &#1091;&#1074;&#1077;&#1076;&#1086;&#1084;&#1083;&#1077;&#1085;&#1080;&#1077;</text></g><!--entity bot_user--><g class="entity" data-qualified-name="......... .......bot_user" data-source-line="29" id="ent0012"><ellipse cx="287.8233" cy="155.0047" fill="#FFFFFF" rx="118.7233" ry="26.1447" style="stroke:#000000;stroke-width:0.5;"/><text fill="#000000" font-family="Arial" font-size="15" lengthAdjust="spacing" textLength="188.2324" x="193.7071" y="155.2862">&#1057;&#1080;&#1085;&#1093;&#1088;&#1086;&#1085;&#1080;&#1079;&#1080;&#1088;&#1086;&#1074;&#1072;&#1090;&#1100; &#1076;&#1072;&#1085;&#1085;&#1099;&#1077;</text><text fill="#000000" font-family="Arial" font-size="15" lengthAdjust="spacing" textLength="96.6504" x="239.4981" y="172.5347">&#1087;&#1086;&#1083;&#1100;&#1079;&#1086;&#1074;&#1072;&#1090;&#1077;&#1083;&#1103;</text></g><!--entity health--><g class="entity" data-qualified-name="......... .......health" data-source-line="30" id="ent0013"><ellipse cx="287.8189" cy="67.9989" fill="#FFFFFF" rx="101.1089" ry="25.4089" style="stroke:#000000;stroke-width:0.5;"/><text fill="#000000" font-family="Arial" font-size="15" lengthAdjust="spacing" textLength="151.0327" x="212.3026" y="67.442">&#1055;&#1088;&#1086;&#1074;&#1077;&#1088;&#1080;&#1090;&#1100; &#1089;&#1086;&#1089;&#1090;&#1086;&#1103;&#1085;&#1080;&#1077;</text><text fill="#000000" font-family="Arial" font-size="15" lengthAdjust="spacing" textLength="85.1001" x="245.2689" y="84.6905">&#1087;&#1088;&#1080;&#1083;&#1086;&#1078;&#1077;&#1085;&#1080;&#1103;</text></g><!--entity crm_data--><g class="entity" data-qualified-name="......... .......crm_data" data-source-line="31" id="ent0014"><ellipse cx="1244.4002" cy="217.9959" fill="#FFFFFF" rx="101.6802" ry="25.9659" style="stroke:#000000;stroke-width:0.5;"/><text fill="#000000" font-family="Arial" font-size="15" lengthAdjust="spacing" textLength="148.2275" x="1170.2864" y="216.5813">&#1055;&#1086;&#1083;&#1091;&#1095;&#1080;&#1090;&#1100; &#1080; &#1080;&#1079;&#1084;&#1077;&#1085;&#1080;&#1090;&#1100;</text><text fill="#000000" font-family="Arial" font-size="15" lengthAdjust="spacing" textLength="106.5161" x="1191.1421" y="233.8298">&#1076;&#1072;&#1085;&#1085;&#1099;&#1077; &#1089;&#1072;&#1083;&#1086;&#1085;&#1072;</text></g><!--entity client--><g class="entity" data-qualified-name="client" data-source-line="17" id="ent0001"><ellipse cx="57.5479" cy="386.87" fill="#F1F1F1" rx="8" ry="8" style="stroke:#000000;stroke-width:0.5;"/><path d="M57.5479,394.87 L57.5479,421.87 M44.5479,402.87 L70.5479,402.87 M57.5479,421.87 L44.5479,436.87 M57.5479,421.87 L70.5479,436.87" fill="none" style="stroke:#000000;stroke-width:0.5;"/><text fill="#000000" font-family="Arial" font-size="15" lengthAdjust="spacing" textLength="103.0957" x="6" y="452.4398">&#1050;&#1083;&#1080;&#1077;&#1085;&#1090; &#1089;&#1072;&#1083;&#1086;&#1085;&#1072;</text></g><!--entity bot--><g class="entity" data-qualified-name="bot" data-source-line="18" id="ent0002"><ellipse cx="57.5467" cy="183.87" fill="#F1F1F1" rx="8" ry="8" style="stroke:#000000;stroke-width:0.5;"/><path d="M57.5467,191.87 L57.5467,218.87 M44.5467,199.87 L70.5467,199.87 M57.5467,218.87 L44.5467,233.87 M57.5467,218.87 L70.5467,233.87" fill="none" style="stroke:#000000;stroke-width:0.5;"/><text fill="#000000" font-family="Arial" font-size="15" lengthAdjust="spacing" textLength="92.1533" x="11.47" y="249.4398">Telegram-&#1073;&#1086;&#1090;</text></g><!--entity crm--><g class="entity" data-qualified-name="crm" data-source-line="19" id="ent0003"><ellipse cx="1010.2107" cy="369.87" fill="#F1F1F1" rx="8" ry="8" style="stroke:#000000;stroke-width:0.5;"/><path d="M1010.2107,377.87 L1010.2107,404.87 M997.2107,385.87 L1023.2107,385.87 M1010.2107,404.87 L997.2107,419.87 M1010.2107,404.87 L1023.2107,419.87" fill="none" style="stroke:#000000;stroke-width:0.5;"/><text fill="#000000" font-family="Arial" font-size="15" lengthAdjust="spacing" textLength="96.4014" x="962.01" y="435.4398">CRM-&#1089;&#1080;&#1089;&#1090;&#1077;&#1084;&#1072;</text></g><!--entity operator--><g class="entity" data-qualified-name="operator" data-source-line="20" id="ent0004"><ellipse cx="57.5485" cy="29.25" fill="#F1F1F1" rx="8" ry="8" style="stroke:#000000;stroke-width:0.5;"/><path d="M57.5485,37.25 L57.5485,64.25 M44.5485,45.25 L70.5485,45.25 M57.5485,64.25 L44.5485,79.25 M57.5485,64.25 L70.5485,79.25" fill="none" style="stroke:#000000;stroke-width:0.5;"/><text fill="#000000" font-family="Arial" font-size="15" lengthAdjust="spacing" textLength="79.6802" x="12.38" y="94.8198">&#1057;&#1080;&#1089;&#1090;&#1077;&#1084;&#1085;&#1099;&#1081;</text><text fill="#000000" font-family="Arial" font-size="15" lengthAdjust="spacing" textLength="90.3369" x="12.38" y="112.0684">&#1087;&#1088;&#1086;&#1075;&#1088;&#1072;&#1084;&#1084;&#1080;&#1089;&#1090;</text></g><!--link client to login--><g class="link" data-entity-1="ent0001" data-entity-2="ent0006" data-link-type="dependency" data-source-line="34" id="lnk15"><path d="M73.08,377.9 C73.08,348.04 73.08,312 73.08,312 C73.08,312 146.04,312 208.02,312" fill="none" id="client-to-login" style="stroke:#000000;stroke-width:1;"/><polygon fill="#000000" points="213.02,312,204.02,308,208.02,312,204.02,316,213.02,312" style="stroke:#000000;stroke-width:1;stroke-linejoin:miter;stroke-miterlimit:10;"/></g><!--link client to profile--><g class="link" data-entity-1="ent0001" data-entity-2="ent0007" data-link-type="dependency" data-source-line="35" id="lnk16"><path d="M109.49,408.5 C237.18,408.5 556.08,408.5 556.08,408.5 C556.08,408.5 556.08,363.76 556.08,334.61" fill="none" id="client-to-profile" style="stroke:#000000;stroke-width:1;"/><polygon fill="#000000" points="556.08,329.61,552.08,338.61,556.08,334.61,560.08,338.61,556.08,329.61" style="stroke:#000000;stroke-width:1;stroke-linejoin:miter;stroke-miterlimit:10;"/></g><!--link client to catalog--><g class="link" data-entity-1="ent0001" data-entity-2="ent0008" data-link-type="dependency" data-source-line="36" id="lnk17"><path d="M42.08,378.16 C42.08,338.5 42.08,282.72 42.08,282.72 C42.08,282.72 557.49,282.72 731.3,282.72" fill="none" id="client-to-catalog" style="stroke:#000000;stroke-width:1;"/><polygon fill="#000000" points="736.3,282.72,727.3,278.72,731.3,282.72,727.3,286.72,736.3,282.72" style="stroke:#000000;stroke-width:1;stroke-linejoin:miter;stroke-miterlimit:10;"/></g><!--link client to create--><g class="link" data-entity-1="ent0001" data-entity-2="ent0009" data-link-type="dependency" data-source-line="37" id="lnk18"><path d="M109.39,423.56 C299.88,423.56 950.08,423.56 950.08,423.56 C950.08,423.56 950.08,347.33 950.08,318.78" fill="none" id="client-to-create" style="stroke:#000000;stroke-width:1;"/><polygon fill="#000000" points="950.08,313.78,946.08,322.78,950.08,318.78,954.08,322.78,950.08,313.78" style="stroke:#000000;stroke-width:1;stroke-linejoin:miter;stroke-miterlimit:10;"/></g><!--link client to manage--><g class="link" data-entity-1="ent0001" data-entity-2="ent0010" data-link-type="dependency" data-source-line="38" id="lnk19"><path d="M109.29,447.12 C337.67,447.12 1244.08,447.12 1244.08,447.12 C1244.08,447.12 1244.08,375.34 1244.08,334.25" fill="none" id="client-to-manage" style="stroke:#000000;stroke-width:1;"/><polygon fill="#000000" points="1244.08,329.25,1240.08,338.25,1244.08,334.25,1248.08,338.25,1244.08,329.25" style="stroke:#000000;stroke-width:1;stroke-linejoin:miter;stroke-miterlimit:10;"/></g><!--reverse link client to notify--><g class="link" data-entity-1="ent0001" data-entity-2="ent0011" data-link-type="dependency" data-source-line="39" id="lnk20"><path d="M114.27,393.43 C156.1,393.43 203.08,393.43 203.08,393.43 C203.08,393.43 203.08,282.78 203.08,248.19" fill="none" id="client-backto-notify" style="stroke:#000000;stroke-width:1;"/><polygon fill="#000000" points="109.27,393.43,118.27,397.43,114.27,393.43,118.27,389.43,109.27,393.43" style="stroke:#000000;stroke-width:1;stroke-linejoin:miter;stroke-miterlimit:10;"/></g><!--link bot to bot_user--><g class="link" data-entity-1="ent0002" data-entity-2="ent0012" data-link-type="dependency" data-source-line="41" id="lnk21"><path d="M103.9,186.59 C138.95,186.59 181.08,186.59 181.08,186.59 C181.08,186.59 181.08,180.74 181.08,171.76" fill="none" id="bot-to-bot_user" style="stroke:#000000;stroke-width:1;"/><polygon fill="#000000" points="181.08,166.76,177.08,175.76,181.08,171.76,185.08,175.76,181.08,166.76" style="stroke:#000000;stroke-width:1;stroke-linejoin:miter;stroke-miterlimit:10;"/></g><!--reverse link bot to notify--><g class="link" data-entity-1="ent0002" data-entity-2="ent0011" data-link-type="dependency" data-source-line="42" id="lnk22"><path d="M108.87,234.55 C134.48,234.55 162.26,234.55 193.04,234.55" fill="none" id="bot-backto-notify" style="stroke:#000000;stroke-width:1;"/><polygon fill="#000000" points="103.87,234.55,112.87,238.55,108.87,234.55,112.87,230.55,103.87,234.55" style="stroke:#000000;stroke-width:1;stroke-linejoin:miter;stroke-miterlimit:10;"/></g><!--link operator to health--><g class="link" data-entity-1="ent0004" data-entity-2="ent0013" data-link-type="dependency" data-source-line="43" id="lnk23"><path d="M103.04,68 C126.9,68 152.14,68 181.22,68" fill="none" id="operator-to-health" style="stroke:#000000;stroke-width:1;"/><polygon fill="#000000" points="186.22,68,177.22,64,181.22,68,177.22,72,186.22,68" style="stroke:#000000;stroke-width:1;stroke-linejoin:miter;stroke-miterlimit:10;"/></g><!--link catalog to crm_data--><g class="link" data-entity-1="ent0008" data-entity-2="ent0014" data-link-type="dependency" data-source-line="45" id="lnk24"><path d="M792.08,276.48 C792.08,253.31 792.08,223.36 792.08,223.36 C792.08,223.36 1006.37,223.36 1139.58,223.36" fill="none" id="catalog-to-crm_data" style="stroke:#000000;stroke-width:1;stroke-dasharray:7,7;"/><polygon fill="#000000" points="1144.58,223.36,1135.58,219.36,1139.58,223.36,1135.58,227.36,1144.58,223.36" style="stroke:#000000;stroke-width:1;stroke-linejoin:miter;stroke-miterlimit:10;"/><text fill="#000000" font-family="Arial" font-size="15" lengthAdjust="spacing" textLength="64.2188" x="876.77" y="238.4298">&#171;include&#187;</text></g><!--link create to crm_data--><g class="link" data-entity-1="ent0009" data-entity-2="ent0014" data-link-type="dependency" data-source-line="46" id="lnk25"><path d="M1010.08,286.89 C1010.08,265.09 1010.08,230.23 1010.08,230.23 C1010.08,230.23 1082.87,230.23 1148.81,230.23" fill="none" id="create-to-crm_data" style="stroke:#000000;stroke-width:1;stroke-dasharray:7,7;"/><polygon fill="#000000" points="1153.81,230.23,1144.81,226.23,1148.81,230.23,1144.81,234.23,1153.81,230.23" style="stroke:#000000;stroke-width:1;stroke-linejoin:miter;stroke-miterlimit:10;"/><text fill="#000000" font-family="Arial" font-size="15" lengthAdjust="spacing" textLength="64.2188" x="988.61" y="245.2998">&#171;include&#187;</text></g><!--link manage to crm_data--><g class="link" data-entity-1="ent0010" data-entity-2="ent0014" data-link-type="dependency" data-source-line="47" id="lnk26"><path d="M1244.08,278.66 C1244.08,267.86 1244.08,260.26 1244.08,249.35" fill="none" id="manage-to-crm_data" style="stroke:#000000;stroke-width:1;stroke-dasharray:7,7;"/><polygon fill="#000000" points="1244.08,244.35,1240.08,253.35,1244.08,249.35,1248.08,253.35,1244.08,244.35" style="stroke:#000000;stroke-width:1;stroke-linejoin:miter;stroke-miterlimit:10;"/><text fill="#000000" font-family="Arial" font-size="15" lengthAdjust="spacing" textLength="64.2188" x="1245.08" y="262.3198">&#171;include&#187;</text></g><!--link crm to crm_data--><g class="link" data-entity-1="ent0003" data-entity-2="ent0014" data-link-type="dependency" data-source-line="48" id="lnk27"><path d="M1058.63,400 C1085.31,400 1113.08,400 1113.08,400 C1113.08,400 1113.08,237.09 1113.08,237.09 C1113.08,237.09 1137.66,237.09 1168.74,237.09" fill="none" id="crm-to-crm_data" style="stroke:#000000;stroke-width:1;"/><polygon fill="#000000" points="1173.74,237.09,1164.74,233.09,1168.74,237.09,1164.74,241.09,1173.74,237.09" style="stroke:#000000;stroke-width:1;stroke-linejoin:miter;stroke-miterlimit:10;"/></g><!--link login to profile--><!--link profile to catalog--><!--link catalog to create--><!--link create to manage--><?plantuml-src ZLHDRnCn4BtxLrYzBn87BYYAL2fnWmCV9q2Lk-liMlNQaTTHLH0IJQauK5698nTKyGT2F-X2ckGlsF-8iTUxE6sKSjaaCs_Ul7apcsgNYI5HfCGx9DtDbHo9R4jogV1UmJH5LPSlfP1feMH9iLQZE5CL99DxJEHuG7WLPp8w82Ek7qkXdn8et5ICyDNvv-mjnVSVH4dE1DNxGugbqeMC4fjAoRr6v0u7rN4grL8zaYgZQZNWPKLJKj7_WTpXnn3o95_Br49MCY5E1nfhYHNB2uqpfcYgcHG84JS4tZ3VpDJKvjBCx1ZR0pE1dtCpCvCDJ2gSSaQ5Rh4lAASvj4pCJpEtOu_OaLrwwzcJ11XgUs37G7ZTSgYoQtOQPMVsi_dzMfY5_G0Tp-4vWUXrW_2LSaWLWKA4d6eYSauznoLWp_pJSs0ecfiBUsYczdW3lqCOZnft0VqL40j8Js6csexjCJPdziZXVGikSoQM2dvuGHDeCBKdJO5NQ3-2JLEdt1SEbHmmJfTAlxi-zj1-QZlzCHCOjh7q74QjiQC6ZnPkIaZCdFMDIqGJ4BF4TmfbL-R2aJYsAoZmXMvARombcjuX7je44cWsW-_EyeZ9Vl5S9H5mGskd0N_1T62QWz_EY7_YXTHii7z3UmtREVAxTS0hO77VpzffWY9OpwKx0j_i66010lmmGdjYsq2ibjK5DdS5TJUfFwwvFMcqXUEglV-_6iM1iw24wsBzzchiTL-7GeW1OIHxnUkYokqC5edU8zIyEZX9-k78ea1xF56etNySQlORHSAMGgIN9Atp23poYCuh5uW0xQlaGM5u57hYU_rEENw8UpqcKZxAQB-F6Wbh08sYjGnb62POWxmRE7bLi2oZuWtygOl8al1vAz_v4pJVoWUp6i4tiy6ulm00?></g></svg>